<svg width="24" height="24" viewBox="0 0 24 24" fill="none" xmlns="http://www.w3.org/2000/svg">
<path d="M10.5 14C14.64 14 18 15.57 18 17.5V20H3V17.5C3 15.57 6.36 14 10.5 14ZM17 17.5C17 16.12 14.09 15 10.5 15C6.91 15 4 16.12 4 17.5V19H17V17.5ZM10.5 5C11.4283 5 12.3185 5.36875 12.9749 6.02513C13.6313 6.6815 14 7.57174 14 8.5C14 9.42826 13.6313 10.3185 12.9749 10.9749C12.3185 11.6313 11.4283 12 10.5 12C9.57174 12 8.6815 11.6313 8.02513 10.9749C7.36875 10.3185 7 9.42826 7 8.5C7 7.57174 7.36875 6.6815 8.02513 6.02513C8.6815 5.36875 9.57174 5 10.5 5ZM10.5 6C9.83696 6 9.20107 6.26339 8.73223 6.73223C8.26339 7.20107 8 7.83696 8 8.5C8 9.16304 8.26339 9.79893 8.73223 10.2678C9.20107 10.7366 9.83696 11 10.5 11C11.163 11 11.7989 10.7366 12.2678 10.2678C12.7366 9.79893 13 9.16304 13 8.5C13 7.83696 12.7366 7.20107 12.2678 6.73223C11.7989 6.26339 11.163 6 10.5 6ZM20 16V15H21V16H20ZM20 13V7H21V13H20Z" fill="black"/>
</svg>
