<svg width="24" height="24" viewBox="0 0 24 24" fill="none" xmlns="http://www.w3.org/2000/svg">
<path d="M11.5 6C13.4892 6 15.3968 6.79018 16.8033 8.1967C18.2099 9.60322 19 11.5109 19 13.5C19 15.4891 18.2099 17.3968 16.8033 18.8033C15.3968 20.2098 13.4892 21 11.5 21C9.51091 21 7.60325 20.2098 6.19673 18.8033C4.79021 17.3968 4.00003 15.4891 4.00003 13.5C4.00003 11.5109 4.79021 9.60322 6.19673 8.1967C7.60325 6.79018 9.51091 6 11.5 6ZM11.5 7C9.77612 7 8.12282 7.68482 6.90384 8.90381C5.68485 10.1228 5.00003 11.7761 5.00003 13.5C5.00003 15.2239 5.68485 16.8772 6.90384 18.0962C8.12282 19.3152 9.77612 20 11.5 20C13.2239 20 14.8772 19.3152 16.0962 18.0962C17.3152 16.8772 18 15.2239 18 13.5C18 11.7761 17.3152 10.1228 16.0962 8.90381C14.8772 7.68482 13.2239 7 11.5 7ZM15.25 5.25L15.89 4.5L19.72 7.7L19.08 8.46L15.25 5.25ZM7.75003 5.25L3.92003 8.46L3.28003 7.7L7.11003 4.5L7.75003 5.25ZM11 11H12V13H14V14H12V16H11V14H9.00003V13H11V11Z" fill="black"/>
</svg>
