<svg width="24" height="24" viewBox="0 0 24 24" fill="none" xmlns="http://www.w3.org/2000/svg">
<path d="M11.5 6C13.4891 6 15.3968 6.79018 16.8033 8.1967C18.2098 9.60322 19 11.5109 19 13.5C19 15.4891 18.2098 17.3968 16.8033 18.8033C15.3968 20.2098 13.4891 21 11.5 21C9.51088 21 7.60322 20.2098 6.1967 18.8033C4.79018 17.3968 4 15.4891 4 13.5C4 11.5109 4.79018 9.60322 6.1967 8.1967C7.60322 6.79018 9.51088 6 11.5 6ZM11.5 7C9.77609 7 8.12279 7.68482 6.9038 8.90381C5.68482 10.1228 5 11.7761 5 13.5C5 15.2239 5.68482 16.8772 6.9038 18.0962C8.12279 19.3152 9.77609 20 11.5 20C13.2239 20 14.8772 19.3152 16.0962 18.0962C17.3152 16.8772 18 15.2239 18 13.5C18 11.7761 17.3152 10.1228 16.0962 8.90381C14.8772 7.68482 13.2239 7 11.5 7ZM11 9H12V13.36L15.05 14.78L14.63 15.69L11 14V9ZM15.25 5.25L15.89 4.5L19.72 7.7L19.08 8.46L15.25 5.25ZM7.75 5.25L3.92 8.46L3.28 7.7L7.11 4.5L7.75 5.25Z" fill="black"/>
</svg>
