<svg width="24" height="24" viewBox="0 0 24 24" fill="none" xmlns="http://www.w3.org/2000/svg">
<path d="M2.78998 4.46L3.49998 3.75L20.25 20.5L19.54 21.21L17.34 19H2.99998L5.99998 16V10.5C5.99998 9.67 6.17998 8.88 6.49998 8.18L2.78998 4.46ZM12 4.5C12 4.36739 11.9473 4.24021 11.8535 4.14645C11.7598 4.05268 11.6326 4 11.5 4C11.3674 4 11.2402 4.05268 11.1464 4.14645C11.0527 4.24021 11 4.36739 11 4.5V6.03C9.99998 6.14 9.08998 6.58 8.39998 7.24L7.68998 6.53C8.32998 5.92 9.11998 5.46 9.99998 5.21V4.5C9.99998 4.10218 10.158 3.72064 10.4393 3.43934C10.7206 3.15804 11.1022 3 11.5 3C11.8978 3 12.2793 3.15804 12.5606 3.43934C12.8419 3.72064 13 4.10218 13 4.5V5.21C15.31 5.86 17 8 17 10.5V15.84L16 14.84V10.5C16 8.18 14.25 6.28 12 6.03V4.5ZM6.99998 10.5V16.41L5.40998 18H16.34L7.27998 8.94C7.09998 9.43 6.99998 9.95 6.99998 10.5ZM11.5 22C10.9237 22.0001 10.365 21.8011 9.91853 21.4367C9.47207 21.0722 9.16524 20.5647 9.04998 20H10.09C10.1928 20.2918 10.3837 20.5445 10.6362 20.7233C10.8888 20.9021 11.1906 20.9981 11.5 20.9981C11.8094 20.9981 12.1112 20.9021 12.3637 20.7233C12.6163 20.5445 12.8071 20.2918 12.91 20H13.95C13.8347 20.5647 13.5279 21.0722 13.0814 21.4367C12.635 21.8011 12.0763 22.0001 11.5 22Z" fill="black"/>
</svg>
