<svg width="24" height="24" viewBox="0 0 24 24" fill="none" xmlns="http://www.w3.org/2000/svg">
<path d="M11.5 3C11.1022 3 10.7206 3.15804 10.4393 3.43934C10.158 3.72064 10 4.10218 10 4.5V5.21C7.69 5.86 6 8 6 10.5V16L3 19H20L17 16V10.5C17 8 15.31 5.86 13 5.21V4.5C13 4.10218 12.842 3.72064 12.5607 3.43934C12.2794 3.15804 11.8978 3 11.5 3ZM11.5 4C11.6326 4 11.7598 4.05268 11.8536 4.14645C11.9473 4.24021 12 4.36739 12 4.5V6.03C14.25 6.28 16 8.18 16 10.5V16.41L17.59 18H5.41L7 16.41V10.5C7 8.18 8.75 6.28 11 6.03V4.5C11 4.36739 11.0527 4.24021 11.1464 4.14645C11.2402 4.05268 11.3674 4 11.5 4ZM11 10V12H9V13H11V15H12V13H14V12H12V10H11ZM9.05 20C9.16476 20.5651 9.47136 21.0732 9.91787 21.4382C10.3644 21.8031 10.9233 22.0025 11.5 22.0025C12.0767 22.0025 12.6356 21.8031 13.0821 21.4382C13.5286 21.0732 13.8352 20.5651 13.95 20H12.91C12.8072 20.2918 12.6163 20.5445 12.3638 20.7233C12.1112 20.9021 11.8094 20.9981 11.5 20.9981C11.1906 20.9981 10.8888 20.9021 10.6362 20.7233C10.3837 20.5445 10.1928 20.2918 10.09 20H9.05Z" fill="black"/>
</svg>
