<svg width="24" height="24" viewBox="0 0 24 24" fill="none" xmlns="http://www.w3.org/2000/svg">
<path d="M14 4L11 7H3C2.20435 7 1.44129 7.31607 0.87868 7.87868C0.31607 8.44129 0 9.20435 0 10L0 13C0 13.7956 0.31607 14.5587 0.87868 15.1213C1.44129 15.6839 2.20435 16 3 16V19C3 19.5304 3.21071 20.0391 3.58579 20.4142C3.96086 20.7893 4.46957 21 5 21H6C6.53043 21 7.03914 20.7893 7.41421 20.4142C7.78929 20.0391 8 19.5304 8 19V16H11L14 19H16V4H14ZM14.41 5H15V18H14.41L11.41 15H3C2.46957 15 1.96086 14.7893 1.58579 14.4142C1.21071 14.0391 1 13.5304 1 13V10C1 9.46957 1.21071 8.96086 1.58579 8.58579C1.96086 8.21071 2.46957 8 3 8H11.41L14.41 5ZM18 7V8C19.7 8.25 21 9.71 21 11.47C21 13.24 19.7 14.69 18 14.94V15.95C19.0991 15.8247 20.1136 15.2993 20.8501 14.474C21.5866 13.6487 21.9937 12.5812 21.9937 11.475C21.9937 10.3688 21.5866 9.30133 20.8501 8.47603C20.1136 7.65072 19.0991 7.12533 18 7ZM18 10.06V12.89C18.58 12.68 19 12.13 19 11.47C19 10.82 18.58 10.26 18 10.06ZM4 16H7V19C7 19.2652 6.89464 19.5196 6.70711 19.7071C6.51957 19.8946 6.26522 20 6 20H5C4.73478 20 4.48043 19.8946 4.29289 19.7071C4.10536 19.5196 4 19.2652 4 19V16Z" fill="black"/>
</svg>
