<svg width="24" height="24" viewBox="0 0 24 24" fill="none" xmlns="http://www.w3.org/2000/svg">
<path d="M12 3H13C15.1217 3 17.1566 3.84285 18.6569 5.34315C20.1571 6.84344 21 8.87827 21 11V12H12V3ZM13 11H20C20 9.14348 19.2625 7.36301 17.9497 6.05025C16.637 4.7375 14.8565 4 13 4V11ZM10 14H18C18 16.1217 17.1571 18.1566 15.6569 19.6569C14.1566 21.1571 12.1217 22 10 22C7.87827 22 5.84344 21.1571 4.34315 19.6569C2.84285 18.1566 2 16.1217 2 14C2 11.8783 2.84285 9.84344 4.34315 8.34315C5.84344 6.84285 7.87827 6 10 6V14ZM9 15V7.07C5.61 7.56 3 10.47 3 14C3 15.8565 3.7375 17.637 5.05025 18.9497C6.36301 20.2625 8.14348 21 10 21C13.53 21 16.44 18.39 16.93 15H9Z" fill="black"/>
</svg>
