<svg width="24" height="24" viewBox="0 0 24 24" fill="none" xmlns="http://www.w3.org/2000/svg">
<path d="M4 5H19C19.7956 5 20.5587 5.31607 21.1213 5.87868C21.6839 6.44129 22 7.20435 22 8V17C22 17.7956 21.6839 18.5587 21.1213 19.1213C20.5587 19.6839 19.7956 20 19 20H4C3.20435 20 2.44129 19.6839 1.87868 19.1213C1.31607 18.5587 1 17.7956 1 17V8C1 7.20435 1.31607 6.44129 1.87868 5.87868C2.44129 5.31607 3.20435 5 4 5ZM4 6C3.46957 6 2.96086 6.21071 2.58579 6.58579C2.21071 6.96086 2 7.46957 2 8V17C2 17.5304 2.21071 18.0391 2.58579 18.4142C2.96086 18.7893 3.46957 19 4 19H19C19.5304 19 20.0391 18.7893 20.4142 18.4142C20.7893 18.0391 21 17.5304 21 17V8C21 7.46957 20.7893 6.96086 20.4142 6.58579C20.0391 6.21071 19.5304 6 19 6H4ZM8.5 8C9.5 8 10.4 8.32 11.15 8.86L10.56 9.67C10 9.25 9.27 9 8.5 9C7.57174 9 6.6815 9.36875 6.02513 10.0251C5.36875 10.6815 5 11.5717 5 12.5C5 13.4283 5.36875 14.3185 6.02513 14.9749C6.6815 15.6313 7.57174 16 8.5 16C9.27 16 10 15.75 10.56 15.33L11.15 16.14C10.4 16.68 9.5 17 8.5 17C6 17 4 15 4 12.5C4 10 6 8 8.5 8ZM16.35 8C17.34 8 18.26 8.32 19 8.86L18.41 9.67C17.888 9.28952 17.2709 9.06096 16.6269 9.00965C15.983 8.95834 15.3375 9.08628 14.7618 9.37929C14.1861 9.6723 13.7028 10.119 13.3654 10.6698C13.0279 11.2206 12.8496 11.854 12.85 12.5C12.8496 13.146 13.0279 13.7794 13.3654 14.3302C13.7028 14.881 14.1861 15.3277 14.7618 15.6207C15.3375 15.9137 15.983 16.0417 16.6269 15.9904C17.2709 15.939 17.888 15.7105 18.41 15.33L19 16.14C18.26 16.68 17.34 17 16.35 17C13.87 17 11.85 15 11.85 12.5C11.85 10 13.87 8 16.35 8Z" fill="black"/>
</svg>
