<svg width="24" height="24" viewBox="0 0 24 24" fill="none" xmlns="http://www.w3.org/2000/svg">
<path d="M11.5 1C12.0763 0.999882 12.635 1.19889 13.0815 1.56335C13.5279 1.9278 13.8347 2.43532 13.95 3H17C17.7956 3 18.5587 3.31607 19.1213 3.87868C19.6839 4.44129 20 5.20435 20 6V19C20 19.7956 19.6839 20.5587 19.1213 21.1213C18.5587 21.6839 17.7956 22 17 22H6C5.20435 22 4.44129 21.6839 3.87868 21.1213C3.31607 20.5587 3 19.7956 3 19V6C3 5.20435 3.31607 4.44129 3.87868 3.87868C4.44129 3.31607 5.20435 3 6 3H9.05C9.16527 2.43532 9.47209 1.9278 9.91855 1.56335C10.365 1.19889 10.9237 0.999882 11.5 1ZM12.91 3C12.8072 2.70818 12.6163 2.45545 12.3638 2.27669C12.1112 2.09792 11.8094 2.00192 11.5 2.00192C11.1906 2.00192 10.8888 2.09792 10.6362 2.27669C10.3837 2.45545 10.1928 2.70818 10.09 3H12.91ZM6 4C5.46957 4 4.96086 4.21071 4.58579 4.58579C4.21071 4.96086 4 5.46957 4 6V19C4 19.5304 4.21071 20.0391 4.58579 20.4142C4.96086 20.7893 5.46957 21 6 21H17C17.5304 21 18.0391 20.7893 18.4142 20.4142C18.7893 20.0391 19 19.5304 19 19V6C19 5.46957 18.7893 4.96086 18.4142 4.58579C18.0391 4.21071 17.5304 4 17 4H16V7H7V4H6ZM8 4V6H15V4H8Z" fill="black"/>
</svg>
