<svg width="24" height="24" viewBox="0 0 24 24" fill="none" xmlns="http://www.w3.org/2000/svg">
<path d="M9 6.5C9 7.29 8.74 8 8.3 8.6L20 20.29V21H19.29L11.5 13.21L8.3 16.4C8.74 17 9 17.71 9 18.5C9 19.4283 8.63125 20.3185 7.97487 20.9749C7.3185 21.6313 6.42826 22 5.5 22C4.57174 22 3.6815 21.6313 3.02513 20.9749C2.36875 20.3185 2 19.4283 2 18.5C2 17.5717 2.36875 16.6815 3.02513 16.0251C3.6815 15.3687 4.57174 15 5.5 15C6.29 15 7 15.26 7.6 15.7L10.79 12.5L7.6 9.3C7 9.74 6.29 10 5.5 10C4.57174 10 3.6815 9.63125 3.02513 8.97487C2.36875 8.3185 2 7.42826 2 6.5C2 5.57174 2.36875 4.6815 3.02513 4.02513C3.6815 3.36875 4.57174 3 5.5 3C6.42826 3 7.3185 3.36875 7.97487 4.02513C8.63125 4.6815 9 5.57174 9 6.5ZM8 6.5C8 5.83696 7.73661 5.20107 7.26777 4.73223C6.79893 4.26339 6.16304 4 5.5 4C4.83696 4 4.20107 4.26339 3.73223 4.73223C3.26339 5.20107 3 5.83696 3 6.5C3 7.16304 3.26339 7.79893 3.73223 8.26777C4.20107 8.73661 4.83696 9 5.5 9C6.16304 9 6.79893 8.73661 7.26777 8.26777C7.73661 7.79893 8 7.16304 8 6.5ZM19.29 4H20V4.71L12.85 11.85L12.15 11.15L19.29 4ZM5.5 16C4.83696 16 4.20107 16.2634 3.73223 16.7322C3.26339 17.2011 3 17.837 3 18.5C3 19.163 3.26339 19.7989 3.73223 20.2678C4.20107 20.7366 4.83696 21 5.5 21C6.16304 21 6.79893 20.7366 7.26777 20.2678C7.73661 19.7989 8 19.163 8 18.5C8 17.837 7.73661 17.2011 7.26777 16.7322C6.79893 16.2634 6.16304 16 5.5 16Z" fill="black"/>
</svg>
