<svg width="24" height="24" viewBox="0 0 24 24" fill="none" xmlns="http://www.w3.org/2000/svg">
<path d="M9 6H17C17.7956 6 18.5587 6.31607 19.1213 6.87868C19.6839 7.44129 20 8.20435 20 9V20C20 20.7956 19.6839 21.5587 19.1213 22.1213C18.5587 22.6839 17.7956 23 17 23H9C8.20435 23 7.44129 22.6839 6.87868 22.1213C6.31607 21.5587 6 20.7956 6 20V19H7V20C7 20.5304 7.21071 21.0391 7.58579 21.4142C7.96086 21.7893 8.46957 22 9 22H17C17.5304 22 18.0391 21.7893 18.4142 21.4142C18.7893 21.0391 19 20.5304 19 20V9C19 8.46957 18.7893 7.96086 18.4142 7.58579C18.0391 7.21071 17.5304 7 17 7H9C8.46957 7 7.96086 7.21071 7.58579 7.58579C7.21071 7.96086 7 8.46957 7 9V14H6V9C6 8.20435 6.31607 7.44129 6.87868 6.87868C7.44129 6.31607 8.20435 6 9 6ZM5 2H15V3H5C4.46957 3 3.96086 3.21071 3.58579 3.58579C3.21071 3.96086 3 4.46957 3 5V14C3 14.5304 3.21071 15.0391 3.58579 15.4142C3.96086 15.7893 4.46957 16 5 16H12.25L10 13.75L10.66 13L14.16 16.5L10.66 20L10 19.25L12.25 17H5C4.20435 17 3.44129 16.6839 2.87868 16.1213C2.31607 15.5587 2 14.7956 2 14V5C2 4.20435 2.31607 3.44129 2.87868 2.87868C3.44129 2.31607 4.20435 2 5 2Z" fill="black"/>
</svg>
