<svg width="24" height="24" viewBox="0 0 24 24" fill="none" xmlns="http://www.w3.org/2000/svg">
<path d="M6 3H16.59L20 6.41V17C20 17.7956 19.6839 18.5587 19.1213 19.1213C18.5587 19.6839 17.7956 20 17 20H6C5.20435 20 4.44129 19.6839 3.87868 19.1213C3.31607 18.5587 3 17.7956 3 17V6C3 5.20435 3.31607 4.44129 3.87868 3.87868C4.44129 3.31607 5.20435 3 6 3ZM6 4C5.46957 4 4.96086 4.21071 4.58579 4.58579C4.21071 4.96086 4 5.46957 4 6V17C4 17.5304 4.21071 18.0391 4.58579 18.4142C4.96086 18.7893 5.46957 19 6 19H17C17.5304 19 18.0391 18.7893 18.4142 18.4142C18.7893 18.0391 19 17.5304 19 17V6.91L16.09 4H15V9H6V4ZM7 4V8H14V4H7ZM12 11C12.7956 11 13.5587 11.3161 14.1213 11.8787C14.6839 12.4413 15 13.2044 15 14C15 14.7956 14.6839 15.5587 14.1213 16.1213C13.5587 16.6839 12.7956 17 12 17C11.2044 17 10.4413 16.6839 9.87868 16.1213C9.31607 15.5587 9 14.7956 9 14C9 13.2044 9.31607 12.4413 9.87868 11.8787C10.4413 11.3161 11.2044 11 12 11ZM12 12C11.4696 12 10.9609 12.2107 10.5858 12.5858C10.2107 12.9609 10 13.4696 10 14C10 14.5304 10.2107 15.0391 10.5858 15.4142C10.9609 15.7893 11.4696 16 12 16C12.5304 16 13.0391 15.7893 13.4142 15.4142C13.7893 15.0391 14 14.5304 14 14C14 13.4696 13.7893 12.9609 13.4142 12.5858C13.0391 12.2107 12.5304 12 12 12ZM6 22C5.34339 22 4.69321 21.8707 4.08658 21.6194C3.47995 21.3681 2.92876 20.9998 2.46447 20.5355C1.52678 19.5979 1 18.3261 1 17V7H2V17C2 18.0609 2.42143 19.0783 3.17157 19.8284C3.92172 20.5786 4.93913 21 6 21H16V22H6Z" fill="black"/>
</svg>
