<svg width="24" height="24" viewBox="0 0 24 24" fill="none" xmlns="http://www.w3.org/2000/svg">
<path d="M2 11L2.5 10H5.37C6.44 6.53 9.68 4 13.5 4C15.63 4 17.58 4.78 19.07 6.08L18.67 7.07C17.7638 6.20771 16.6563 5.58576 15.4484 5.26078C14.2405 4.9358 12.9704 4.91811 11.7539 5.20932C10.5374 5.50053 9.41302 6.09139 8.48316 6.92811C7.55331 7.76483 6.84751 8.82084 6.43 10H17.5L17.1 11H6.15C5.95067 11.9901 5.95067 13.0099 6.15 14H15.9L15.5 15H6.43C7.46 17.91 10.23 20 13.5 20C15.67 20 17.63 19.08 19 17.6V19C17.5 20.24 15.6 21 13.5 21C9.68 21 6.44 18.47 5.37 15H2L2.5 14H5.13C5.05 13.5 5 13 5 12.5C5 12 5.05 11.5 5.13 11H2Z" fill="black"/>
</svg>
