<svg width="24" height="24" viewBox="0 0 24 24" fill="none" xmlns="http://www.w3.org/2000/svg">
<path d="M7 13V12H9.82C9.75 11.53 9.66 11.1 9.57 10.7C9.38 9.82001 9.21 9.00001 9.25 8.00001C9.33 6.18001 9.92 4.93001 11.03 4.27001C12.71 3.25001 15.05 4.00001 16 4.36001L15.85 5.37001C15.21 5.10001 12.96 4.27001 11.54 5.13001C10.74 5.60001 10.31 6.58001 10.25 8.00001C10.21 8.90001 10.37 9.64001 10.55 10.5C10.65 10.95 10.75 11.44 10.84 12H15V13H10.95C11 13.38 11 13.8 11 14.25C11 17.43 9.53 19 8.35 20H17V21H6.5V20L7.31 19.57C8.44 18.62 10 17.33 10 14.25C10 13.8 10 13.38 9.95 13H7Z" fill="black"/>
</svg>
