<svg width="24" height="24" viewBox="0 0 24 24" fill="none" xmlns="http://www.w3.org/2000/svg">
<path d="M21 9.00003V18C21 18.7957 20.6839 19.5587 20.1213 20.1213C19.5587 20.684 18.7956 21 18 21H5C4.20435 21 3.44129 20.684 2.87868 20.1213C2.31607 19.5587 2 18.7957 2 18V9.00003C2 7.89003 2.6 6.92003 3.5 6.40003L11.5 1.78003L19.5 6.40003C20.4 6.92003 21 7.89003 21 9.00003ZM3.72 7.47003L11.5 12.5L19.28 7.47003L11.5 2.93003L3.72 7.47003ZM11.5 13.71L3.13 8.28003C3.05 8.50003 3 8.75003 3 9.00003V18C3 18.5305 3.21071 19.0392 3.58579 19.4142C3.96086 19.7893 4.46957 20 5 20H18C18.5304 20 19.0391 19.7893 19.4142 19.4142C19.7893 19.0392 20 18.5305 20 18V9.00003C20 8.75003 19.95 8.50003 19.87 8.28003L11.5 13.71Z" fill="black"/>
</svg>
