<svg width="24" height="24" viewBox="0 0 24 24" fill="none" xmlns="http://www.w3.org/2000/svg">
<path d="M16 14.5C16 15.4283 15.6313 16.3185 14.9749 16.9749C14.3185 17.6313 13.4283 18 12.5 18H7V5H11.5C12.4283 5 13.3185 5.36875 13.9749 6.02513C14.6313 6.6815 15 7.57174 15 8.5C15 9.6 14.5 10.57 13.71 11.21C15.05 11.71 16 13 16 14.5ZM11.5 6H8V11H11.5C12.163 11 12.7989 10.7366 13.2678 10.2678C13.7366 9.79893 14 9.16304 14 8.5C14 7.83696 13.7366 7.20107 13.2678 6.73223C12.7989 6.26339 12.163 6 11.5 6ZM12.5 12H8V17H12.5C13.163 17 13.7989 16.7366 14.2678 16.2678C14.7366 15.7989 15 15.163 15 14.5C15 13.837 14.7366 13.2011 14.2678 12.7322C13.7989 12.2634 13.163 12 12.5 12Z" fill="black"/>
</svg>
