<svg width="24" height="24" viewBox="0 0 24 24" fill="none" xmlns="http://www.w3.org/2000/svg">
<path d="M20 18V19H7V18H20ZM3.5 17.5C3.76522 17.5 4.01957 17.6054 4.20711 17.7929C4.39464 17.9804 4.5 18.2348 4.5 18.5C4.5 18.7652 4.39464 19.0196 4.20711 19.2071C4.01957 19.3946 3.76522 19.5 3.5 19.5C3.23478 19.5 2.98043 19.3946 2.79289 19.2071C2.60536 19.0196 2.5 18.7652 2.5 18.5C2.5 18.2348 2.60536 17.9804 2.79289 17.7929C2.98043 17.6054 3.23478 17.5 3.5 17.5ZM20 12V13H7V12H20ZM3.5 11.5C3.76522 11.5 4.01957 11.6054 4.20711 11.7929C4.39464 11.9804 4.5 12.2348 4.5 12.5C4.5 12.7652 4.39464 13.0196 4.20711 13.2071C4.01957 13.3946 3.76522 13.5 3.5 13.5C3.23478 13.5 2.98043 13.3946 2.79289 13.2071C2.60536 13.0196 2.5 12.7652 2.5 12.5C2.5 12.2348 2.60536 11.9804 2.79289 11.7929C2.98043 11.6054 3.23478 11.5 3.5 11.5ZM20 6V7H7V6H20ZM3.5 5.5C3.76522 5.5 4.01957 5.60536 4.20711 5.79289C4.39464 5.98043 4.5 6.23478 4.5 6.5C4.5 6.76522 4.39464 7.01957 4.20711 7.20711C4.01957 7.39464 3.76522 7.5 3.5 7.5C3.23478 7.5 2.98043 7.39464 2.79289 7.20711C2.60536 7.01957 2.5 6.76522 2.5 6.5C2.5 6.23478 2.60536 5.98043 2.79289 5.79289C2.98043 5.60536 3.23478 5.5 3.5 5.5Z" fill="black"/>
</svg>
