<svg width="24" height="24" viewBox="0 0 24 24" fill="none" xmlns="http://www.w3.org/2000/svg">
<path d="M0.790039 2.46L1.50004 1.75L22.25 22.5L21.54 23.21L19.76 21.43C19.27 21.79 18.66 22 18 22H5.00004C4.20439 22 3.44133 21.6839 2.87872 21.1213C2.31611 20.5587 2.00004 19.7956 2.00004 19V6C2.00004 5.34 2.21004 4.73 2.57004 4.24L0.790039 2.46ZM5.00004 3H18C18.7957 3 19.5588 3.31607 20.1214 3.87868C20.684 4.44129 21 5.20435 21 6V19L20.91 19.74L20 18.84V16H17.16L16.16 15H20V10H15V13.84L14 12.84V10H11.16L10.16 9H14V4H9.00004V7.84L8.00004 6.84V4H5.16004L4.26004 3.09L5.00004 3ZM3.00004 6V9H7.34004L3.29004 4.96C3.11004 5.26 3.00004 5.62 3.00004 6ZM9.00004 15H13.34L9.00004 10.66V15ZM15 21H18C18.38 21 18.74 20.89 19.04 20.71L15 16.66V21ZM3.00004 19C3.00004 19.5304 3.21075 20.0391 3.58583 20.4142C3.9609 20.7893 4.46961 21 5.00004 21H8.00004V16H3.00004V19ZM8.00004 10H3.00004V15H8.00004V10ZM20 6C20 5.46957 19.7893 4.96086 19.4143 4.58579C19.0392 4.21071 18.5305 4 18 4H15V9H20V6ZM9.00004 21H14V16H9.00004V21Z" fill="black"/>
</svg>
