<svg width="24" height="24" viewBox="0 0 24 24" fill="none" xmlns="http://www.w3.org/2000/svg">
<path d="M1.78998 3.46L2.49998 2.75L19.25 19.5L18.54 20.21L15.38 17.04L11.5 20.92L3.53998 12.96C3.03764 12.4587 2.64223 11.8606 2.37767 11.2021C2.1131 10.5435 1.98489 9.83815 2.00078 9.12862C2.01667 8.41909 2.17634 7.72016 2.47012 7.07412C2.76391 6.42807 3.1857 5.84834 3.70998 5.37L1.78998 3.46ZM4.23998 12.25L11.5 19.5L14.67 16.34L4.41998 6.08C3.54998 6.86 2.99998 8 2.99998 9.25C2.99998 10.42 3.46998 11.5 4.23998 12.25ZM18.76 12.25C19.5 11.5 20 10.42 20 9.25C20 8.12283 19.5522 7.04183 18.7552 6.2448C17.9582 5.44777 16.8771 5 15.75 5C14.17 5 12.79 5.86 12.06 7.14H10.94C10.5689 6.48906 10.0319 5.94809 9.38369 5.57218C8.7355 5.19626 7.99928 4.99884 7.24998 5L6.27998 5.11L5.46998 4.31C6.02998 4.11 6.62998 4 7.24998 4C8.99998 4 10.55 4.85 11.5 6.17C12.45 4.85 14 4 15.75 4C17.1424 4 18.4777 4.55312 19.4623 5.53769C20.4469 6.52226 21 7.85761 21 9.25C21 10.7 20.41 12 19.46 12.96L16.79 15.63L16.09 14.92L18.76 12.25Z" fill="black"/>
</svg>
