<svg width="24" height="24" viewBox="0 0 24 24" fill="none" xmlns="http://www.w3.org/2000/svg">
<path d="M11.5 4C9.24566 4 7.08365 4.89553 5.48959 6.48959C3.89553 8.08365 3 10.2457 3 12.5C3 14.7543 3.89553 16.9163 5.48959 18.5104C7.08365 20.1045 9.24566 21 11.5 21C12.6162 21 13.7215 20.7801 14.7528 20.353C15.7841 19.9258 16.7211 19.2997 17.5104 18.5104C18.2997 17.7211 18.9258 16.7841 19.353 15.7528C19.7801 14.7215 20 13.6162 20 12.5C20 10.2457 19.1045 8.08365 17.5104 6.48959C15.9163 4.89553 13.7543 4 11.5 4ZM11.5 3C14.0196 3 16.4359 4.00089 18.2175 5.78249C19.9991 7.56408 21 9.98044 21 12.5C21 15.0196 19.9991 17.4359 18.2175 19.2175C16.4359 20.9991 14.0196 22 11.5 22C8.98044 22 6.56408 20.9991 4.78249 19.2175C3.00089 17.4359 2 15.0196 2 12.5C2 9.98044 3.00089 7.56408 4.78249 5.78249C6.56408 4.00089 8.98044 3 11.5 3ZM11 17H12V19H11V17ZM11.5 6C12.4283 6 13.3185 6.36875 13.9749 7.02513C14.6313 7.6815 15 8.57174 15 9.5C15 10.4 14.3 11 13.56 11.68L12.63 12.58C12.04 13.25 11.97 14.53 12 14.97V15H11C11 14.95 10.9 13.04 11.87 11.92L12.9 10.93C13.5 10.4 14 9.95 14 9.5C14 8.83696 13.7366 8.20107 13.2678 7.73223C12.7989 7.26339 12.163 7 11.5 7C10.837 7 10.2011 7.26339 9.73223 7.73223C9.26339 8.20107 9 8.83696 9 9.5H8C8 8.57174 8.36875 7.6815 9.02513 7.02513C9.6815 6.36875 10.5717 6 11.5 6Z" fill="black"/>
</svg>
