<svg width="24" height="24" viewBox="0 0 24 24" fill="none" xmlns="http://www.w3.org/2000/svg">
<path d="M6 6H14C14.97 6 15.83 6.46 16.38 7.18L20.54 12.5L16.38 17.82C15.83 18.54 14.97 19 14 19H6C5.20435 19 4.44129 18.6839 3.87868 18.1213C3.31607 17.5587 3 16.7956 3 16V9C3 8.20435 3.31607 7.44129 3.87868 6.87868C4.44129 6.31607 5.20435 6 6 6ZM15.58 17.23L19.27 12.5L15.58 7.77C15.21 7.3 14.64 7 14 7H6C5.46957 7 4.96086 7.21071 4.58579 7.58579C4.21071 7.96086 4 8.46957 4 9V16C4 16.5304 4.21071 17.0391 4.58579 17.4142C4.96086 17.7893 5.46957 18 6 18H14C14.64 18 15.21 17.7 15.58 17.23Z" fill="black"/>
</svg>
