<svg width="24" height="24" viewBox="0 0 24 24" fill="none" xmlns="http://www.w3.org/2000/svg">
<path d="M14 20C14 20.5304 13.7893 21.0391 13.4142 21.4142C13.0391 21.7893 12.5304 22 12 22H11C10.4696 22 9.96086 21.7893 9.58579 21.4142C9.21071 21.0391 9 20.5304 9 20H10C10 20.2652 10.1054 20.5196 10.2929 20.7071C10.4804 20.8946 10.7348 21 11 21H12C12.2652 21 12.5196 20.8946 12.7071 20.7071C12.8946 20.5196 13 20.2652 13 20H14ZM15 17C15 17.5304 14.7893 18.0391 14.4142 18.4142C14.0391 18.7893 13.5304 19 13 19H10C9.46957 19 8.96086 18.7893 8.58579 18.4142C8.21071 18.0391 8 17.5304 8 17V15C6.2 13.82 5 11.8 5 9.5C5 7.77609 5.68482 6.12279 6.90381 4.90381C8.12279 3.68482 9.77609 3 11.5 3C13.2239 3 14.8772 3.68482 16.0962 4.90381C17.3152 6.12279 18 7.77609 18 9.5C18 11.8 16.8 13.82 15 15V17ZM9 17C9 17.2652 9.10536 17.5196 9.29289 17.7071C9.48043 17.8946 9.73478 18 10 18H13C13.2652 18 13.5196 17.8946 13.7071 17.7071C13.8946 17.5196 14 17.2652 14 17V14.4C15.78 13.5 17 11.64 17 9.5C17 8.04131 16.4205 6.64236 15.3891 5.61091C14.3576 4.57946 12.9587 4 11.5 4C10.0413 4 8.64236 4.57946 7.61091 5.61091C6.57946 6.64236 6 8.04131 6 9.5C6 11.64 7.22 13.5 9 14.4V17ZM8.13 10.12L10.5 7.75L12.5 9.75L14.25 8L14.96 8.71L12.5 11.16L10.5 9.16L8.84 10.83L8.13 10.12Z" fill="black"/>
</svg>
