<svg width="24" height="24" viewBox="0 0 24 24" fill="none" xmlns="http://www.w3.org/2000/svg">
<path d="M10.73 14.97C11 15.08 11.09 15.38 10.97 15.63C10.85 15.88 10.56 16 10.31 15.87H10.3C9.83996 15.66 9.40996 15.36 9.02995 14.97C8.61149 14.5528 8.27947 14.0572 8.05293 13.5115C7.82638 12.9658 7.70977 12.3808 7.70977 11.79C7.70977 11.1991 7.82638 10.6141 8.05293 10.0684C8.27947 9.52269 8.61149 9.02708 9.02995 8.60995L12.56 5.07995C12.9771 4.66149 13.4727 4.32947 14.0184 4.10293C14.5641 3.87638 15.1491 3.75977 15.74 3.75977C16.3308 3.75977 16.9158 3.87638 17.4615 4.10293C18.0072 4.32947 18.5028 4.66149 18.92 5.07995C19.3384 5.49708 19.6704 5.99269 19.897 6.53838C20.1235 7.08407 20.2401 7.66911 20.2401 8.25996C20.2401 8.8508 20.1235 9.43584 19.897 9.98153C19.6704 10.5272 19.3384 11.0228 18.92 11.44L17.29 13.07L17.14 11.81L18.22 10.73C18.8732 10.0719 19.2399 9.18223 19.2399 8.25496C19.2399 7.32768 18.8732 6.43802 18.22 5.77996C17.5619 5.12667 16.6722 4.76005 15.745 4.76005C14.8177 4.76005 13.928 5.12667 13.27 5.77996L9.72995 9.31995C9.07667 9.97802 8.71005 10.8677 8.71005 11.795C8.71005 12.7222 9.07667 13.6119 9.72995 14.27C10.03 14.57 10.37 14.8 10.73 14.97ZM4.07995 19.92C3.66149 19.5028 3.32947 19.0072 3.10293 18.4615C2.87638 17.9158 2.75977 17.3308 2.75977 16.74C2.75977 16.1491 2.87638 15.5641 3.10293 15.0184C3.32947 14.4727 3.66149 13.9771 4.07995 13.56L5.70995 11.93L5.85996 13.19L4.77996 14.27C4.12667 14.928 3.76005 15.8177 3.76005 16.745C3.76005 17.6722 4.12667 18.5619 4.77996 19.22C5.43802 19.8732 6.32768 20.2399 7.25496 20.2399C8.18223 20.2399 9.07189 19.8732 9.72995 19.22L13.27 15.68C13.9232 15.0219 14.2899 14.1322 14.2899 13.205C14.2899 12.2777 13.9232 11.388 13.27 10.73C12.97 10.43 12.63 10.2 12.27 10.03V10.04C12.209 10.0132 12.1541 9.97421 12.1087 9.92549C12.0633 9.87677 12.0282 9.8193 12.0058 9.7566C11.9833 9.69389 11.9739 9.62726 11.978 9.56079C11.9822 9.49431 11.9999 9.42938 12.03 9.36996C12.15 9.11996 12.44 8.99996 12.69 9.12996H12.7C13.16 9.33996 13.59 9.63996 13.97 10.03C14.3884 10.4471 14.7204 10.9427 14.947 11.4884C15.1735 12.0341 15.2901 12.6191 15.2901 13.21C15.2901 13.8008 15.1735 14.3858 14.947 14.9315C14.7204 15.4772 14.3884 15.9728 13.97 16.39L10.44 19.92C10.0228 20.3384 9.52722 20.6704 8.98153 20.897C8.43584 21.1235 7.8508 21.2401 7.25996 21.2401C6.66911 21.2401 6.08407 21.1235 5.53838 20.897C4.99269 20.6704 4.49708 20.3384 4.07995 19.92Z" fill="black"/>
</svg>
