<svg width="24" height="24" viewBox="0 0 24 24" fill="none" xmlns="http://www.w3.org/2000/svg">
<path d="M8 13V12H15V13H8ZM15.5 7C16.9587 7 18.3576 7.57946 19.3891 8.61091C20.4205 9.64236 21 11.0413 21 12.5C21 13.9587 20.4205 15.3576 19.3891 16.3891C18.3576 17.4205 16.9587 18 15.5 18H13V17H15.5C18 17 20 15 20 12.5C20 10 18 8 15.5 8H13V7H15.5ZM7.5 18C6.04131 18 4.64236 17.4205 3.61091 16.3891C2.57946 15.3576 2 13.9587 2 12.5C2 11.0413 2.57946 9.64236 3.61091 8.61091C4.64236 7.57946 6.04131 7 7.5 7H10V8H7.5C5 8 3 10 3 12.5C3 15 5 17 7.5 17H10V18H7.5Z" fill="black"/>
</svg>
