<svg width="24" height="24" viewBox="0 0 24 24" fill="none" xmlns="http://www.w3.org/2000/svg">
<path d="M15 3H9C8.20435 3 6.69027 3.00427 6 3.00423C6 3.00423 6 5.20435 6 6V10H7V6C7 5.46957 7 4 7 4C7.44718 4 8.46957 4 9 4H15C15.5304 4 16.989 4 16.989 4C16.989 4 17 5.46957 17 6V19C17 19.5304 17 21 17 21C17 21 15.5304 21 15 21H9C8.46957 21 7.64132 21 7 21C7 20.6402 7 19.5304 7 19V15H6V19C6 19.7956 6 21 6 22C7 22 8.20435 22 9 22H15C15.7956 22 18 22 18 22C18 22 18 19.7956 18 19V6C18 5.20435 18 3 18 3C18 3 15.7956 3 15 3ZM3 12H13.25L10 8.75L10.66 8L15.16 12.5L10.66 17L10 16.25L13.25 13H3V12Z" fill="black"/>
</svg>
