<svg width="24" height="24" viewBox="0 0 24 24" fill="none" xmlns="http://www.w3.org/2000/svg">
<path d="M5 2.99997H11C11.7956 2.99997 14 2.99988 14 2.99988C14 2.99988 14 5.20432 14 5.99997V9.99997H13V5.99997C13 5.46954 13 3.99997 13 3.99997C13 3.99997 11.5304 3.99997 11 3.99997H5C4.46957 3.99997 3 3.99997 3 3.99997C3 3.99997 3 5.46954 3 5.99997V19C3 19.5304 3 21 3 21C3 21 4.46957 21 5 21H11C11.5304 21 13 21 13 21C13 21 13 19.5304 13 19V15H14V19C14 19.7956 14 22 14 22C14 22 11.7956 22 11 22H5C4.20435 22 2.00001 22 2.00001 22C2.00001 22 2 19.7956 2 19V5.99997C2 5.20432 2.00001 2.99995 2.00001 2.99995C2.00001 2.99995 4.20435 2.99997 5 2.99997ZM8 12H19.25L16 8.74997L16.66 7.99997L21.16 12.5L16.66 17L16 16.25L19.25 13H8V12Z" fill="black"/>
</svg>
