<svg width="23" height="23" viewBox="0 0 23 23" fill="none" xmlns="http://www.w3.org/2000/svg">
<path d="M9.10417 3.83337C10.7562 3.83337 12.3407 4.48966 13.5089 5.65785C14.677 6.82605 15.3333 8.41046 15.3333 10.0625C15.3333 11.615 14.7679 13.0334 13.8288 14.1163L19.2433 19.5309L18.5629 20.2113L13.1483 14.7967C12.0225 15.7628 10.5877 16.2932 9.10417 16.2917C7.45209 16.2917 5.86768 15.6354 4.69948 14.4672C3.53129 13.299 2.875 11.7146 2.875 10.0625C2.875 8.41046 3.53129 6.82605 4.69948 5.65785C5.86768 4.48966 7.45209 3.83337 9.10417 3.83337ZM9.10417 4.79171C7.70625 4.79171 6.3656 5.34703 5.37712 6.3355C4.38865 7.32397 3.83333 8.66463 3.83333 10.0625C3.83333 11.4605 4.38865 12.8011 5.37712 13.7896C6.3656 14.7781 7.70625 15.3334 9.10417 15.3334C9.79634 15.3334 10.4817 15.197 11.1212 14.9322C11.7607 14.6673 12.3418 14.279 12.8312 13.7896C13.3207 13.3001 13.7089 12.7191 13.9738 12.0796C14.2387 11.4401 14.375 10.7547 14.375 10.0625C14.375 9.37036 14.2387 8.68497 13.9738 8.04548C13.7089 7.40599 13.3207 6.82494 12.8312 6.3355C12.3418 5.84606 11.7607 5.45781 11.1212 5.19293C10.4817 4.92804 9.79634 4.79171 9.10417 4.79171Z" fill="black"/>
</svg>
