<svg width="24" height="24" viewBox="0 0 24 24" fill="none" xmlns="http://www.w3.org/2000/svg">
<path d="M8 19C7.20435 19 6.44129 18.6839 5.87868 18.1213C5.31607 17.5587 5 16.7956 5 16V15H3V14H5V11H3V10H5V9C5 8.20435 5.31607 7.44129 5.87868 6.87868C6.44129 6.31607 7.20435 6 8 6H9V4H10V6H13V4H14V6H15C15.7956 6 16.5587 6.31607 17.1213 6.87868C17.6839 7.44129 18 8.20435 18 9V10H20V11H18V14H20V15H18V16C18 16.7956 17.6839 17.5587 17.1213 18.1213C16.5587 18.6839 15.7956 19 15 19H14V21H13V19H10V21H9V19H8ZM8 7C7.46957 7 6.96086 7.21071 6.58579 7.58579C6.21071 7.96086 6 8.46957 6 9V16C6 16.5304 6.21071 17.0391 6.58579 17.4142C6.96086 17.7893 7.46957 18 8 18H15C15.5304 18 16.0391 17.7893 16.4142 17.4142C16.7893 17.0391 17 16.5304 17 16V9C17 8.46957 16.7893 7.96086 16.4142 7.58579C16.0391 7.21071 15.5304 7 15 7H8ZM9 15V10H14V15H9ZM10 11V14H13V11H10Z" fill="black"/>
</svg>
