<svg width="24" height="24" viewBox="0 0 24 24" fill="none" xmlns="http://www.w3.org/2000/svg">
<path d="M3 20.59L6.59 17H18C18.5304 17 19.0391 16.7893 19.4142 16.4142C19.7893 16.0391 20 15.5304 20 15V6C20 5.46957 19.7893 4.96086 19.4142 4.58579C19.0391 4.21071 18.5304 4 18 4H5C4.46957 4 3.96086 4.21071 3.58579 4.58579C3.21071 4.96086 3 5.46957 3 6V20.59ZM3 22H2V6C2 5.20435 2.31607 4.44129 2.87868 3.87868C3.44129 3.31607 4.20435 3 5 3H18C18.7956 3 19.5587 3.31607 20.1213 3.87868C20.6839 4.44129 21 5.20435 21 6V15C21 15.7956 20.6839 16.5587 20.1213 17.1213C19.5587 17.6839 18.7956 18 18 18H7L3 22ZM6.5 9C6.89782 9 7.27936 9.15804 7.56066 9.43934C7.84196 9.72064 8 10.1022 8 10.5C8 10.8978 7.84196 11.2794 7.56066 11.5607C7.27936 11.842 6.89782 12 6.5 12C6.10218 12 5.72064 11.842 5.43934 11.5607C5.15804 11.2794 5 10.8978 5 10.5C5 10.1022 5.15804 9.72064 5.43934 9.43934C5.72064 9.15804 6.10218 9 6.5 9ZM6.5 10C6.36739 10 6.24021 10.0527 6.14645 10.1464C6.05268 10.2402 6 10.3674 6 10.5C6 10.6326 6.05268 10.7598 6.14645 10.8536C6.24021 10.9473 6.36739 11 6.5 11C6.63261 11 6.75979 10.9473 6.85355 10.8536C6.94732 10.7598 7 10.6326 7 10.5C7 10.3674 6.94732 10.2402 6.85355 10.1464C6.75979 10.0527 6.63261 10 6.5 10ZM11.5 9C11.8978 9 12.2794 9.15804 12.5607 9.43934C12.842 9.72064 13 10.1022 13 10.5C13 10.8978 12.842 11.2794 12.5607 11.5607C12.2794 11.842 11.8978 12 11.5 12C11.1022 12 10.7206 11.842 10.4393 11.5607C10.158 11.2794 10 10.8978 10 10.5C10 10.1022 10.158 9.72064 10.4393 9.43934C10.7206 9.15804 11.1022 9 11.5 9ZM11.5 10C11.3674 10 11.2402 10.0527 11.1464 10.1464C11.0527 10.2402 11 10.3674 11 10.5C11 10.6326 11.0527 10.7598 11.1464 10.8536C11.2402 10.9473 11.3674 11 11.5 11C11.6326 11 11.7598 10.9473 11.8536 10.8536C11.9473 10.7598 12 10.6326 12 10.5C12 10.3674 11.9473 10.2402 11.8536 10.1464C11.7598 10.0527 11.6326 10 11.5 10ZM16.5 9C16.8978 9 17.2794 9.15804 17.5607 9.43934C17.842 9.72064 18 10.1022 18 10.5C18 10.8978 17.842 11.2794 17.5607 11.5607C17.2794 11.842 16.8978 12 16.5 12C16.1022 12 15.7206 11.842 15.4393 11.5607C15.158 11.2794 15 10.8978 15 10.5C15 10.1022 15.158 9.72064 15.4393 9.43934C15.7206 9.15804 16.1022 9 16.5 9ZM16.5 10C16.3674 10 16.2402 10.0527 16.1464 10.1464C16.0527 10.2402 16 10.3674 16 10.5C16 10.6326 16.0527 10.7598 16.1464 10.8536C16.2402 10.9473 16.3674 11 16.5 11C16.6326 11 16.7598 10.9473 16.8536 10.8536C16.9473 10.7598 17 10.6326 17 10.5C17 10.3674 16.9473 10.2402 16.8536 10.1464C16.7598 10.0527 16.6326 10 16.5 10Z" fill="black"/>
</svg>
