<svg width="24" height="24" viewBox="0 0 24 24" fill="none" xmlns="http://www.w3.org/2000/svg">
<path d="M11 21V18C7.64 17.73 5 14.92 5 11.5V11H6V11.5C6 12.9587 6.57946 14.3576 7.61091 15.3891C8.64236 16.4205 10.0413 17 11.5 17C12.9587 17 14.3576 16.4205 15.3891 15.3891C16.4205 14.3576 17 12.9587 17 11.5V11H18V11.5C18 14.92 15.36 17.73 12 18V21H11ZM11.5 3C12.163 3 12.7989 3.26339 13.2678 3.73223C13.7366 4.20107 14 4.83696 14 5.5V11.5C14 12.163 13.7366 12.7989 13.2678 13.2678C12.7989 13.7366 12.163 14 11.5 14C10.837 14 10.2011 13.7366 9.73223 13.2678C9.26339 12.7989 9 12.163 9 11.5V5.5C9 4.83696 9.26339 4.20107 9.73223 3.73223C10.2011 3.26339 10.837 3 11.5 3ZM11.5 4C11.1022 4 10.7206 4.15804 10.4393 4.43934C10.158 4.72064 10 5.10218 10 5.5V11.5C10 11.8978 10.158 12.2794 10.4393 12.5607C10.7206 12.842 11.1022 13 11.5 13C11.8978 13 12.2794 12.842 12.5607 12.5607C12.842 12.2794 13 11.8978 13 11.5V5.5C13 5.10218 12.842 4.72064 12.5607 4.43934C12.2794 4.15804 11.8978 4 11.5 4Z" fill="black"/>
</svg>
