<svg width="24" height="24" viewBox="0 0 24 24" fill="none" xmlns="http://www.w3.org/2000/svg">
<path d="M2.78998 4.46L3.49998 3.75L15.26 15.5L15.97 16.22L20.25 20.5L19.54 21.21L15.19 16.85C14.27 17.5 13.18 17.89 12 18V21H11V18C7.63998 17.73 4.99998 14.92 4.99998 11.5V11H5.99998V11.5C5.99998 12.9587 6.57944 14.3576 7.61089 15.3891C8.64234 16.4205 10.0413 17 11.5 17C12.59 17 13.61 16.68 14.47 16.13L12.23 13.89C12 13.96 11.75 14 11.5 14C10.8369 14 10.2011 13.7366 9.73221 13.2678C9.26337 12.7989 8.99998 12.163 8.99998 11.5V10.66L2.78998 4.46ZM17 11.5V11H18V11.5C18 13 17.5 14.38 16.64 15.5L15.93 14.76C16.6 13.85 17 12.72 17 11.5ZM11.5 3C12.163 3 12.7989 3.26339 13.2677 3.73223C13.7366 4.20107 14 4.83696 14 5.5V11.5C14 11.89 13.91 12.26 13.75 12.59L12.97 11.8L13 11.5V5.5C13 5.10218 12.8419 4.72064 12.5606 4.43934C12.2793 4.15804 11.8978 4 11.5 4C11.1022 4 10.7206 4.15804 10.4393 4.43934C10.158 4.72064 9.99998 5.10218 9.99998 5.5V8.84L8.99998 7.84V5.5C8.99998 4.83696 9.26337 4.20107 9.73221 3.73223C10.2011 3.26339 10.8369 3 11.5 3ZM9.99998 11.67C10.09 12.36 10.64 12.91 11.33 13L9.99998 11.67Z" fill="black"/>
</svg>
