<svg width="24" height="24" viewBox="0 0 24 24" fill="none" xmlns="http://www.w3.org/2000/svg">
<path d="M2.79004 4.46L3.50004 3.75L20.25 20.5L19.54 21.21L17.12 18.78C16.77 18.92 16.4 19 16 19C15.2044 19 14.4413 18.6839 13.8787 18.1213C13.3161 17.5587 13 16.7956 13 16C13 15.6 13.08 15.23 13.22 14.88L9.00004 10.66V17C9.00004 17.7956 8.68397 18.5587 8.12136 19.1213C7.55875 19.6839 6.79569 20 6.00004 20C5.20439 20 4.44133 19.6839 3.87872 19.1213C3.31611 18.5587 3.00004 17.7956 3.00004 17C3.00004 16.2044 3.31611 15.4413 3.87872 14.8787C4.44133 14.3161 5.20439 14 6.00004 14C6.77004 14 7.47004 14.29 8.00004 14.76V9.66L2.79004 4.46ZM8.00004 6.1L19 5V16C19 16.53 18.86 17.03 18.62 17.46L17.87 16.71C17.95 16.5 18 16.25 18 16C18 15.4696 17.7893 14.9609 17.4143 14.5858C17.0392 14.2107 16.5305 14 16 14C15.75 14 15.5 14.05 15.29 14.13L14.54 13.38C15.0851 13.0772 15.7107 12.9511 16.3305 13.0191C16.9503 13.0872 17.5337 13.3461 18 13.76V9.04L11 9.82L10.08 8.91L18 8.04V6.09L9.00004 7V7.84L8.00004 6.84V6.1ZM14 16C14 16.5304 14.2108 17.0391 14.5858 17.4142C14.9609 17.7893 15.4696 18 16 18H16.31L14 15.69V16ZM8.00004 17C8.00004 16.4696 7.78933 15.9609 7.41425 15.5858C7.03918 15.2107 6.53047 15 6.00004 15C5.46961 15 4.9609 15.2107 4.58583 15.5858C4.21075 15.9609 4.00004 16.4696 4.00004 17C4.00004 17.5304 4.21075 18.0391 4.58583 18.4142C4.9609 18.7893 5.46961 19 6.00004 19C6.53047 19 7.03918 18.7893 7.41425 18.4142C7.78933 18.0391 8.00004 17.5304 8.00004 17Z" fill="black"/>
</svg>
