<svg width="24" height="24" viewBox="0 0 24 24" fill="none" xmlns="http://www.w3.org/2000/svg">
<path d="M11 13V4H12V13H11ZM19 12.5C19 14.4891 18.2098 16.3968 16.8033 17.8033C15.3968 19.2098 13.4891 20 11.5 20C9.51088 20 7.60322 19.2098 6.1967 17.8033C4.79018 16.3968 4 14.4891 4 12.5C4 9.79 5.44 7.41 7.6 6.1L8.33 6.83C7.31957 7.39206 6.47793 8.21423 5.89238 9.21124C5.30684 10.2082 4.99873 11.3438 5 12.5C5 14.2239 5.68482 15.8772 6.90381 17.0962C8.12279 18.3152 9.77609 19 11.5 19C13.2239 19 14.8772 18.3152 16.0962 17.0962C17.3152 15.8772 18 14.2239 18 12.5C18 10.06 16.66 7.94 14.67 6.83L15.4 6.1C16.4997 6.76722 17.4088 7.70675 18.0394 8.82784C18.67 9.94894 19.0009 11.2137 19 12.5Z" fill="black"/>
</svg>
