<svg width="24" height="24" viewBox="0 0 24 24" fill="none" xmlns="http://www.w3.org/2000/svg">
<path d="M17 20V19H16V20H17ZM10 8.00001C8.4087 8.00001 6.88258 8.63215 5.75736 9.75737C4.63214 10.8826 4 12.4087 4 14C4 15.5913 4.63214 17.1174 5.75736 18.2427C6.88258 19.3679 8.4087 20 10 20H14V19H10C8.67392 19 7.40215 18.4732 6.46447 17.5355C5.52678 16.5979 5 15.3261 5 14C5 12.6739 5.52678 11.4022 6.46447 10.4645C7.40215 9.52679 8.67392 9.00001 10 9.00001H17.09L14.05 12.04L14.76 12.74L19 8.50001L14.76 4.26001L14.05 4.96001L17.09 8.00001H10Z" fill="black"/>
</svg>
