<svg width="24" height="24" viewBox="0 0 24 24" fill="none" xmlns="http://www.w3.org/2000/svg">
<path d="M5 16C5.79565 16 6.55871 16.3161 7.12132 16.8787C7.68393 17.4413 8 18.2044 8 19C8 19.7956 7.68393 20.5587 7.12132 21.1213C6.55871 21.6839 5.79565 22 5 22C4.20435 22 3.44129 21.6839 2.87868 21.1213C2.31607 20.5587 2 19.7956 2 19C2 18.2044 2.31607 17.4413 2.87868 16.8787C3.44129 16.3161 4.20435 16 5 16ZM5 17C4.46957 17 3.96086 17.2107 3.58579 17.5858C3.21071 17.9609 3 18.4696 3 19C3 19.5304 3.21071 20.0391 3.58579 20.4142C3.96086 20.7893 4.46957 21 5 21C5.53043 21 6.03914 20.7893 6.41421 20.4142C6.78929 20.0391 7 19.5304 7 19C7 18.4696 6.78929 17.9609 6.41421 17.5858C6.03914 17.2107 5.53043 17 5 17ZM2 11C8.08 11 13 15.92 13 22H12C12 20.6868 11.7413 19.3864 11.2388 18.1732C10.7362 16.9599 9.99965 15.8575 9.07107 14.9289C8.14248 14.0003 7.04009 13.2638 5.82683 12.7612C4.61358 12.2587 3.31322 12 2 12V11ZM2 7C5.97825 7 9.79356 8.58035 12.6066 11.3934C15.4196 14.2064 17 18.0218 17 22H16C16 18.287 14.525 14.726 11.8995 12.1005C9.27399 9.475 5.71303 8 2 8V7ZM2 3C12.5 3 21 11.5 21 22H20C20 17.2261 18.1036 12.6477 14.7279 9.27208C11.3523 5.89642 6.7739 4 2 4V3Z" fill="black"/>
</svg>
