<svg width="24" height="24" viewBox="0 0 24 24" fill="none" xmlns="http://www.w3.org/2000/svg">
<path d="M19.59 15.5L17.77 14.2C18.07 13.12 18.09 11.95 17.77 10.78L19.59 9.5L18.14 7L16.11 7.92C15.32 7.12 14.32 6.5 13.15 6.21L12.95 4H10.05L9.84999 6.21C8.67999 6.5 7.67999 7.12 6.88999 7.92L4.85999 7L3.40999 9.5L5.22999 10.78C4.90999 11.95 4.92999 13.12 5.22999 14.2L3.40999 15.5L4.85999 18L6.88999 17.07C7.67999 17.86 8.67999 18.46 9.84999 18.77L10.05 21H12.95L13.15 18.77C14.32 18.46 15.32 17.86 16.11 17.07L18.14 18L19.59 15.5ZM13.5 3C13.77 3 14 3.2 14 3.46L14.18 5.5C14.94 5.78 15.62 6.19 16.23 6.68L18.08 5.81C18.31 5.69 18.6 5.77 18.74 6L20.74 9.5C20.88 9.71 20.8 10 20.58 10.15L18.91 11.32C19.04 12.12 19.03 12.91 18.91 13.68L20.58 14.85C20.8 15 20.88 15.29 20.74 15.5L18.74 19C18.6 19.21 18.31 19.29 18.08 19.17L16.23 18.31C15.62 18.8 14.94 19.2 14.18 19.5L14 21.5C14 21.79 13.77 22 13.5 22H9.49999C9.36738 22 9.2402 21.9473 9.14643 21.8536C9.05267 21.7598 8.99999 21.6326 8.99999 21.5L8.81999 19.5C8.05999 19.2 7.37999 18.8 6.76999 18.31L4.91999 19.17C4.68999 19.29 4.39999 19.21 4.25999 19L2.25999 15.5C2.11999 15.29 2.19999 15 2.41999 14.85L4.08999 13.68C3.96999 12.91 3.95999 12.12 4.08999 11.32L2.41999 10.15C2.19999 10 2.11999 9.71 2.25999 9.5L4.25999 6C4.39999 5.77 4.68999 5.69 4.91999 5.81L6.76999 6.68C7.37999 6.19 8.05999 5.78 8.81999 5.5L8.99999 3.46C8.99999 3.2 9.22999 3 9.49999 3H13.5ZM11.5 9C12.4282 9 13.3185 9.36875 13.9749 10.0251C14.6312 10.6815 15 11.5717 15 12.5C15 13.4283 14.6312 14.3185 13.9749 14.9749C13.3185 15.6313 12.4282 16 11.5 16C10.5717 16 9.68149 15.6313 9.02511 14.9749C8.36874 14.3185 7.99999 13.4283 7.99999 12.5C7.99999 11.5717 8.36874 10.6815 9.02511 10.0251C9.68149 9.36875 10.5717 9 11.5 9ZM11.5 10C10.8369 10 10.2011 10.2634 9.73222 10.7322C9.26338 11.2011 8.99999 11.837 8.99999 12.5C8.99999 13.163 9.26338 13.7989 9.73222 14.2678C10.2011 14.7366 10.8369 15 11.5 15C12.163 15 12.7989 14.7366 13.2678 14.2678C13.7366 13.7989 14 13.163 14 12.5C14 11.837 13.7366 11.2011 13.2678 10.7322C12.7989 10.2634 12.163 10 11.5 10Z" fill="black"/>
</svg>
