<svg width="24" height="24" viewBox="0 0 24 24" fill="none" xmlns="http://www.w3.org/2000/svg">
<path d="M2.50004 2.75L1.79004 3.46L6.16004 7.84L4.00004 10V19C4.00004 19.7956 4.31611 20.5587 4.87872 21.1213C5.44133 21.6839 6.20439 22 7.00004 22H16C17.16 22 18.15 21.34 18.64 20.38L20.46 22.21L21.25 21.5L7.58004 7.83L6.88004 7.13L2.50004 2.75ZM11 3L7.58004 6.42L8.29004 7.13L11.41 4H16C16.5305 4 17.0392 4.21071 17.4143 4.58579C17.7893 4.96086 18 5.46957 18 6V16.84L19 17.84V6C19 5.20435 18.684 4.44129 18.1214 3.87868C17.5588 3.31607 16.7957 3 16 3H11ZM6.86004 8.55L17.89 19.63C17.62 20.42 16.88 21 16 21H7.00004C6.46961 21 5.9609 20.7893 5.58583 20.4142C5.21075 20.0391 5.00004 19.5304 5.00004 19V10.41L6.86004 8.55Z" fill="black"/>
</svg>
