<svg width="24" height="24" viewBox="0 0 24 24" fill="none" xmlns="http://www.w3.org/2000/svg">
<path d="M2 10H5C5.26522 10 5.51957 10.1054 5.70711 10.2929C5.89464 10.4805 6 10.7348 6 11V20C6 20.2653 5.89464 20.5196 5.70711 20.7071C5.51957 20.8947 5.26522 21 5 21H2C1.73478 21 1.48043 20.8947 1.29289 20.7071C1.10536 20.5196 1 20.2653 1 20V11C1 10.7348 1.10536 10.4805 1.29289 10.2929C1.48043 10.1054 1.73478 10 2 10ZM2 11V20H5V11H2ZM17.72 19.03L20.72 14.03C20.9 13.73 21 13.37 21 13V12C21 11.4696 20.7893 10.9609 20.4142 10.5858C20.0391 10.2107 19.5304 10 19 10H13.39L14.85 4.56003V4.54003C14.8973 4.37145 14.8982 4.19319 14.8524 4.02417C14.8066 3.85516 14.716 3.70168 14.59 3.58003L8.59 9.59003C8.22 9.95003 8 10.45 8 11V18C8 18.5305 8.21071 19.0392 8.58579 19.4142C8.96086 19.7893 9.46957 20 10 20H16C16.73 20 17.37 19.61 17.72 19.03ZM22 13C22 13.59 21.83 14.15 21.53 14.61L18.62 19.45C18.11 20.38 17.13 21 16 21H10C9.20435 21 8.44129 20.684 7.87868 20.1214C7.31607 19.5587 7 18.7957 7 18V11C7 10.17 7.34 9.42003 7.88 8.88003L14.59 2.16003L15.3 2.87003C15.83 3.40003 16 4.16003 15.81 4.84003L14.69 9.00003H19C19.7956 9.00003 20.5587 9.3161 21.1213 9.87871C21.6839 10.4413 22 11.2044 22 12V13Z" fill="black"/>
</svg>
