<svg width="24" height="24" viewBox="0 0 24 24" fill="none" xmlns="http://www.w3.org/2000/svg">
<path d="M10.9 8.43003L11 8.00003C11 7.73482 10.8946 7.48046 10.7071 7.29293C10.5196 7.10539 10.2652 7.00003 10 7.00003H4.93L5.85 3.56003V3.54003C5.89735 3.37145 5.89818 3.19319 5.8524 3.02418C5.80663 2.85516 5.71595 2.70168 5.59 2.58003L1.59 6.59003C1.22 6.95003 1 7.45003 1 8.00003V12C1 12.5305 1.21071 13.0392 1.58579 13.4142C1.96086 13.7893 2.46957 14 3 14H7C7.8 14 8.5 13.53 8.81 12.86H8.8L10.9 8.43003ZM7 15H3C2.20435 15 1.44129 14.684 0.87868 14.1214C0.31607 13.5587 0 12.7957 0 12L0 8.00003C0 7.17003 0.34 6.42003 0.88 5.88003L5.59 1.16003L6.3 1.87003C6.83 2.40003 7 3.16003 6.81 3.84003L6.23 6.00003H10C10.5304 6.00003 11.0391 6.21075 11.4142 6.58582C11.7893 6.96089 12 7.4696 12 8.00003C12 8.34003 11.92 8.66003 11.77 8.94003L9.76 13.17C9.53034 13.7123 9.14617 14.1749 8.65538 14.5004C8.16459 14.8258 7.58887 14.9996 7 15ZM12.1 16.57L12 17C12 17.2653 12.1054 17.5196 12.2929 17.7071C12.4804 17.8947 12.7348 18 13 18H18.07L17.15 21.44V21.46C17.06 21.79 17.14 22.16 17.41 22.42L21.42 18.41H21.41C21.78 18.05 22 17.55 22 17V13C22 12.4696 21.7893 11.9609 21.4142 11.5858C21.0391 11.2107 20.5304 11 20 11H16C15.2 11 14.5 11.47 14.19 12.14H14.2L12.1 16.57ZM16 10H20C20.7956 10 21.5587 10.3161 22.1213 10.8787C22.6839 11.4413 23 12.2044 23 13V17C23 17.83 22.67 18.58 22.12 19.12L17.41 23.84L16.7 23.13C16.17 22.6 16 21.84 16.19 21.16L16.77 19H13C12.4696 19 11.9609 18.7893 11.5858 18.4142C11.2107 18.0392 11 17.5305 11 17C11 16.66 11.09 16.34 11.23 16.06L13.24 11.83C13.4697 11.2878 13.8538 10.8251 14.3446 10.4997C14.8354 10.1743 15.4111 10.0005 16 10Z" fill="black"/>
</svg>
