<svg width="24" height="24" viewBox="0 0 24 24" fill="none" xmlns="http://www.w3.org/2000/svg">
<path d="M21 15H18C17.7348 15 17.4804 14.8946 17.2929 14.7071C17.1054 14.5196 17 14.2652 17 14V5C17 4.73478 17.1054 4.48043 17.2929 4.29289C17.4804 4.10536 17.7348 4 18 4H21C21.2652 4 21.5196 4.10536 21.7071 4.29289C21.8946 4.48043 22 4.73478 22 5V14C22 14.2652 21.8946 14.5196 21.7071 14.7071C21.5196 14.8946 21.2652 15 21 15ZM21 14V5H18V14H21ZM5.28 5.97L2.28 10.97C2.1 11.27 2 11.63 2 12V13C2 13.5304 2.21071 14.0391 2.58579 14.4142C2.96086 14.7893 3.46957 15 4 15H9.61L8.15 20.44V20.46C8.06 20.79 8.14 21.16 8.41 21.42L14.42 15.42L14.41 15.41C14.78 15.05 15 14.55 15 14V7C15 6.46957 14.7893 5.96086 14.4142 5.58579C14.0391 5.21071 13.5304 5 13 5H7C6.27 5 5.63 5.39 5.28 5.97ZM1 12C1 11.41 1.17 10.85 1.47 10.39L4.38 5.55C4.89 4.62 5.87 4 7 4H13C13.7956 4 14.5587 4.31607 15.1213 4.87868C15.6839 5.44129 16 6.20435 16 7V14C16 14.83 15.67 15.58 15.12 16.12L8.41 22.84L7.7 22.13C7.17 21.6 7 20.84 7.19 20.16L8.31 16H4C3.20435 16 2.44129 15.6839 1.87868 15.1213C1.31607 14.5587 1 13.7956 1 13V12Z" fill="black"/>
</svg>
