<svg width="24" height="24" viewBox="0 0 24 24" fill="none" xmlns="http://www.w3.org/2000/svg">
<path d="M6 20V19H7V20H6ZM13 8.00001C14.5913 8.00001 16.1174 8.63215 17.2426 9.75737C18.3679 10.8826 19 12.4087 19 14C19 15.5913 18.3679 17.1174 17.2426 18.2427C16.1174 19.3679 14.5913 20 13 20H9V19H13C14.3261 19 15.5979 18.4732 16.5355 17.5355C17.4732 16.5979 18 15.3261 18 14C18 12.6739 17.4732 11.4022 16.5355 10.4645C15.5979 9.52679 14.3261 9.00001 13 9.00001H5.91L8.95 12.04L8.24 12.74L4 8.50001L8.24 4.26001L8.95 4.96001L5.91 8.00001H13Z" fill="black"/>
</svg>
