<svg width="24" height="24" viewBox="0 0 24 24" fill="none" xmlns="http://www.w3.org/2000/svg">
<path d="M11.5001 20.5L7.00007 14.5C8.24007 13.56 9.81007 13 11.5001 13C13.1901 13 14.7601 13.56 16.0001 14.5L11.5001 20.5ZM11.5001 18.84L14.5701 14.77C13.6259 14.2641 12.5713 13.9993 11.5001 13.9993C10.4289 13.9993 9.37426 14.2641 8.43007 14.77L11.5001 18.84ZM11.5001 4C15.2301 4 18.6701 5.24 21.4301 7.32L20.8301 8.12C18.2301 6.16 15.0001 5 11.5001 5C8.00007 5 4.77007 6.16 2.17007 8.12L1.57007 7.32C4.33007 5.24 7.77007 4 11.5001 4ZM11.5001 10C13.8701 10 16.0601 10.79 17.8201 12.11L17.2201 12.91C15.5728 11.6664 13.564 10.9956 11.5001 11C9.35007 11 7.37007 11.71 5.78007 12.91L5.18007 12.11C6.94007 10.79 9.13007 10 11.5001 10ZM11.5001 7C14.5501 7 17.3601 8 19.6201 9.72L19.0001 10.5C16.8381 8.87397 14.2053 7.99638 11.5001 8C8.68007 8 6.07007 8.94 4.00007 10.5L3.38007 9.72C5.64007 8 8.45007 7 11.5001 7Z" fill="black"/>
</svg>
